# xmcd CD database file
#
# Track frame offsets:
#	150
#	17333
#	35951
#	53507
#	68922
#	86047
#	101890
#	119971
#	135594
#	153950
#	171388
#	191260
#	207489
#
# Disc length: 2970 seconds
#
# Revision: 0
# Processed by: cddbd v1.5.2PL0 Copyright (c) Steve Scherf et al.
# Submitted via: CDex 1.70beta2
#
DISCID=ba0b980d
DTITLE=Elvis Crespo - Regresó El Jefe
DYEAR=1900
DGENRE=Merengue
TTITLE0=Elvis Crespo - 20 Aky
TTITLE1=Elvis Crespo - La Foto Se Me Borró Ft. Zonde Dtambora
TTITLE2=Elvis Crespo - Con El Tiempo Y Un Ganchito
TTITLE3=Elvis Crespo - Banbaribiri Ft. Nejo
TTITLE4=Elvis Crespo - Lloré Y Lloré
TTITLE5=Elvis Crespo - Tala Tala
TTITLE6=Elvis Crespo - Mi Fracaso
TTITLE7=Elvis Crespo - Los Caminos De La Vida Ft. Los Hermanos Rosario
TTITLE8=Elvis Crespo - Ito Ito Bonito
TTITLE9=Elvis Crespo - Te Veo Triste
TTITLE10=Elvis Crespo - Así Es La Vida
TTITLE11=Elvis Crespo - Echate Pacá Ft. Grupo Manía the Originals
TTITLE12=Elvis Crespo - La Foto Se Me Borró Ft. Zonde Dtambora (Bachata Mix)
EXTD=
EXTT0=
EXTT1=
EXTT2=
EXTT3=
EXTT4=
EXTT5=
EXTT6=
EXTT7=
EXTT8=
EXTT9=
EXTT10=
EXTT11=
EXTT12=
PLAYORDER=
